<?xml version="1.0" encoding="utf-8"?>
<!-- Svg Vector Icons : http://www.onlinewebfonts.com/icon -->
<!DOCTYPE svg PUBLIC "-//W3C//DTD SVG 1.1//EN" "http://www.w3.org/Graphics/SVG/1.1/DTD/svg11.dtd">
<svg version="1.1" xmlns="http://www.w3.org/2000/svg" xmlns:xlink="http://www.w3.org/1999/xlink" x="0px" y="0px" viewBox="0 0 1000 1000" enable-background="new 0 0 1000 1000" xml:space="preserve">
<metadata> Svg Vector Icons : http://www.onlinewebfonts.com/icon </metadata>
<g><g><g id="Zoom_1_"><g><path d="M990,918.9L724.4,652.1c51-67.2,81.5-151.1,81.5-242.1c0-220.4-178.5-399.8-398-399.8S10,189.6,10,410c0,220.5,178.5,399.9,397.9,399.9c93,0,178.6-32.3,246.5-86.3l265,266.2L990,918.9z M407.9,719.9c-170,0-308.4-139-308.4-309.9c0-170.8,138.4-309.8,308.4-309.8c170,0,308.4,139,308.4,309.8C716.3,580.9,578,719.9,407.9,719.9z"/></g></g></g><g></g><g></g><g></g><g></g><g></g><g></g><g></g><g></g><g></g><g></g><g></g><g></g><g></g><g></g><g></g></g>
</svg>