<?xml version="1.0" encoding="utf-8"?>
<!-- Svg Vector Icons : http://www.onlinewebfonts.com/icon -->
<!DOCTYPE svg PUBLIC "-//W3C//DTD SVG 1.1//EN" "http://www.w3.org/Graphics/SVG/1.1/DTD/svg11.dtd">
<svg version="1.1" xmlns="http://www.w3.org/2000/svg" xmlns:xlink="http://www.w3.org/1999/xlink" x="0px" y="0px" viewBox="0 0 1000 1000" enable-background="new 0 0 1000 1000" xml:space="preserve">
<metadata> Svg Vector Icons : http://www.onlinewebfonts.com/icon </metadata>
<g><path d="M500,220c-179.1,0-318.7,106.8-490,280c147.5,148,271.2,280,490,280c218.5,0,379.3-167.1,490-276.9C876.8,374.6,716.1,220,500,220L500,220z M500,699.7c-108,0-196-89.7-196-199.7c0-110.3,88-199.7,196-199.7S696,390,696,500C696,610.3,608,699.7,500,699.7L500,699.7z"/><path d="M500,429.9c0-17.4,6.4-33.1,16.7-45.3c-5.4-1-11-1.2-16.7-1.2c-63,0-114.4,52.2-114.4,116.6c0,64.4,51.4,116.6,114.4,116.6c63,0,114.4-52.2,114.4-116.6c0-5.1-0.5-10-1-15.2c-12,9.3-26.9,15.2-43.4,15.2C531.4,500,500,468.6,500,429.9L500,429.9z"/></g>
</svg>