<?xml version="1.0" encoding="utf-8"?>
<!-- Svg Vector Icons : http://www.onlinewebfonts.com/icon -->
<!DOCTYPE svg PUBLIC "-//W3C//DTD SVG 1.1//EN" "http://www.w3.org/Graphics/SVG/1.1/DTD/svg11.dtd">
<svg version="1.1" xmlns="http://www.w3.org/2000/svg" xmlns:xlink="http://www.w3.org/1999/xlink" x="0px" y="0px" viewBox="0 0 1000 1000" enable-background="new 0 0 1000 1000" xml:space="preserve">
<metadata> Svg Vector Icons : http://www.onlinewebfonts.com/icon </metadata>
<g><path d="M898.2,747.5c15.7,17.3,18.8,36.3,9.3,56.9c-9.5,20.6-25,30.9-46.4,30.9H699c-11.5,45.4-35.9,82.5-73,111.4c-37.1,28.9-79.2,43.3-126.2,43.3c-47,0-88.9-14.4-125.6-43.3c-36.7-28.9-60.8-66-72.4-111.4H139.7c-21.4,0-37.1-10.7-47-32.2c-9.9-21.4-6.6-40.4,9.9-56.9c2.5-2.5,5.8-6.4,9.9-11.8c4.1-5.4,11.1-17.5,21-36.5c9.9-19,18.8-39.8,26.6-62.5c7.8-22.7,15.1-53.2,21.7-91.6c6.6-38.4,9.9-79,9.9-121.9c0-66.8,19.2-126.8,57.5-180c38.4-53.2,88.1-90.5,149.1-112c-0.8-4.1-1.2-9.9-1.2-17.3c0-28,9.9-52.2,29.7-72.4c19.8-20.2,44.1-30.3,73-30.3c28.9,0,53.4,10.1,73.6,30.3c20.2,20.2,30.3,44.3,30.3,72.4c0,3.3-0.8,9.1-2.5,17.3c61,21.4,111,58.8,149.7,112c38.8,53.2,58.2,113.2,58.2,180c0,42.9,3.3,83.5,9.9,121.9c6.6,38.4,13.8,69.1,21.7,92.2c7.8,23.1,16.7,43.9,26.6,62.5c9.9,18.6,16.9,30.7,21,36.5C892.5,740.9,895.8,745,898.2,747.5L898.2,747.5z M499.8,216.6c-56.9,0-105.4,20-145.4,60c-40,40-60,88.5-60,145.4c0,40.4-1.6,75.1-4.9,103.9h421.9c-4.1-35.5-6.2-70.1-6.2-103.9c0-56.9-20.2-105.4-60.6-145.4C604.1,236.6,555.9,216.6,499.8,216.6z M499.8,886.1c40.4,0,70.1-16.9,89.1-50.7H411.9C430.9,869.2,460.2,886.1,499.8,886.1L499.8,886.1z M232.5,731.4h535.8c-20.6-42.9-36.7-94.5-48.3-154.7H280.8C269.2,636.9,253.1,688.5,232.5,731.4z"/></g>
</svg>